<svg xmlns="http://www.w3.org/2000/svg" xmlns:xlink="http://www.w3.org/1999/xlink" width="240" zoomAndPan="magnify" viewBox="0 0 180 30.000001" height="40" preserveAspectRatio="xMidYMid meet" version="1.0"><defs><g/></defs><g fill="#ffffff" fill-opacity="1"><g transform="translate(4.050749, 23.616129)"><g><path d="M 0.1875 -15.125 L 0.1875 -18.890625 L 13.46875 -18.890625 L 13.46875 -15.125 L 8.984375 -15.125 L 8.984375 0 L 4.671875 0 L 4.671875 -15.125 Z M 0.1875 -15.125 "/></g></g></g><g fill="#ffffff" fill-opacity="1"><g transform="translate(15.428983, 23.616129)"><g><path d="M 13.265625 -5.3125 L 4.734375 -5.3125 C 4.734375 -4.488281 5 -3.878906 5.53125 -3.484375 C 6.070312 -3.085938 6.65625 -2.890625 7.28125 -2.890625 C 7.9375 -2.890625 8.457031 -2.972656 8.84375 -3.140625 C 9.226562 -3.316406 9.660156 -3.664062 10.140625 -4.1875 L 13.078125 -2.71875 C 11.859375 -0.675781 9.828125 0.34375 6.984375 0.34375 C 5.210938 0.34375 3.691406 -0.257812 2.421875 -1.46875 C 1.160156 -2.6875 0.53125 -4.148438 0.53125 -5.859375 C 0.53125 -7.566406 1.160156 -9.03125 2.421875 -10.25 C 3.691406 -11.476562 5.210938 -12.09375 6.984375 -12.09375 C 8.847656 -12.09375 10.363281 -11.550781 11.53125 -10.46875 C 12.695312 -9.394531 13.28125 -7.859375 13.28125 -5.859375 C 13.28125 -5.585938 13.273438 -5.40625 13.265625 -5.3125 Z M 4.859375 -7.5625 L 9.328125 -7.5625 C 9.234375 -8.164062 8.988281 -8.628906 8.59375 -8.953125 C 8.207031 -9.285156 7.707031 -9.453125 7.09375 -9.453125 C 6.425781 -9.453125 5.894531 -9.273438 5.5 -8.921875 C 5.101562 -8.578125 4.890625 -8.125 4.859375 -7.5625 Z M 4.859375 -7.5625 "/></g></g></g><g fill="#ffffff" fill-opacity="1"><g transform="translate(26.967486, 23.616129)"><g><path d="M 14.984375 0 L 10.078125 0 L 7.484375 -3.328125 L 4.90625 0 L 0 0 L 5.015625 -6.140625 L 0.703125 -11.75 L 5.453125 -11.75 L 7.484375 -9.03125 L 9.53125 -11.75 L 14.265625 -11.75 L 9.96875 -6.140625 Z M 14.984375 0 "/></g></g></g><g fill="#ffffff" fill-opacity="1"><g transform="translate(39.673683, 23.616129)"><g><path d="M 2.0625 -11.75 L 2.0625 -16.125 L 6.109375 -16.125 L 6.109375 -11.75 L 8.59375 -11.75 L 8.59375 -8.65625 L 6.109375 -8.65625 L 6.109375 -4.921875 C 6.109375 -3.835938 6.414062 -3.296875 7.03125 -3.296875 C 7.1875 -3.296875 7.347656 -3.328125 7.515625 -3.390625 C 7.679688 -3.453125 7.8125 -3.515625 7.90625 -3.578125 L 8.046875 -3.671875 L 9.046875 -0.390625 C 8.179688 0.0976562 7.1875 0.34375 6.0625 0.34375 C 5.300781 0.34375 4.644531 0.210938 4.09375 -0.046875 C 3.550781 -0.316406 3.132812 -0.675781 2.84375 -1.125 C 2.5625 -1.582031 2.359375 -2.054688 2.234375 -2.546875 C 2.117188 -3.046875 2.0625 -3.578125 2.0625 -4.140625 L 2.0625 -8.65625 L 0.359375 -8.65625 L 0.359375 -11.75 Z M 2.0625 -11.75 "/></g></g></g><g fill="#ffffff" fill-opacity="1"><g transform="translate(46.449811, 23.616129)"><g/></g></g><g fill="#ffffff" fill-opacity="1"><g transform="translate(50.432618, 23.616129)"><g><path d="M 12.296875 -18.890625 L 12.296875 -15.125 L 5.6875 -15.125 L 5.6875 -11.359375 L 11.796875 -11.359375 L 11.796875 -7.578125 L 5.6875 -7.578125 L 5.6875 0 L 1.375 0 L 1.375 -18.890625 Z M 12.296875 -18.890625 "/></g></g></g><g fill="#ffffff" fill-opacity="1"><g transform="translate(61.146863, 23.616129)"><g><path d="M 2.484375 -1.390625 C 1.179688 -2.554688 0.53125 -4.046875 0.53125 -5.859375 C 0.53125 -7.679688 1.207031 -9.175781 2.5625 -10.34375 C 3.925781 -11.507812 5.609375 -12.09375 7.609375 -12.09375 C 9.578125 -12.09375 11.234375 -11.503906 12.578125 -10.328125 C 13.929688 -9.148438 14.609375 -7.660156 14.609375 -5.859375 C 14.609375 -4.054688 13.945312 -2.570312 12.625 -1.40625 C 11.3125 -0.238281 9.640625 0.34375 7.609375 0.34375 C 5.492188 0.34375 3.785156 -0.234375 2.484375 -1.390625 Z M 5.609375 -7.859375 C 5.085938 -7.335938 4.828125 -6.671875 4.828125 -5.859375 C 4.828125 -5.054688 5.078125 -4.394531 5.578125 -3.875 C 6.085938 -3.363281 6.753906 -3.109375 7.578125 -3.109375 C 8.367188 -3.109375 9.019531 -3.367188 9.53125 -3.890625 C 10.050781 -4.410156 10.3125 -5.066406 10.3125 -5.859375 C 10.3125 -6.671875 10.046875 -7.335938 9.515625 -7.859375 C 8.992188 -8.378906 8.347656 -8.640625 7.578125 -8.640625 C 6.796875 -8.640625 6.140625 -8.378906 5.609375 -7.859375 Z M 5.609375 -7.859375 "/></g></g></g><g fill="#ffffff" fill-opacity="1"><g transform="translate(74.013339, 23.616129)"><g><path d="M 1.375 0 L 1.375 -11.75 L 5.421875 -11.75 L 5.421875 -10.0625 L 5.46875 -10.0625 C 5.5 -10.113281 5.550781 -10.1875 5.625 -10.28125 C 5.695312 -10.375 5.84375 -10.535156 6.0625 -10.765625 C 6.289062 -10.992188 6.535156 -11.195312 6.796875 -11.375 C 7.054688 -11.5625 7.390625 -11.726562 7.796875 -11.875 C 8.210938 -12.019531 8.640625 -12.09375 9.078125 -12.09375 C 9.515625 -12.09375 9.945312 -12.03125 10.375 -11.90625 C 10.800781 -11.789062 11.113281 -11.671875 11.3125 -11.546875 L 11.640625 -11.359375 L 9.9375 -7.921875 C 9.4375 -8.347656 8.734375 -8.5625 7.828125 -8.5625 C 7.335938 -8.5625 6.914062 -8.453125 6.5625 -8.234375 C 6.21875 -8.023438 5.972656 -7.769531 5.828125 -7.46875 C 5.679688 -7.164062 5.578125 -6.90625 5.515625 -6.6875 C 5.453125 -6.476562 5.421875 -6.3125 5.421875 -6.1875 L 5.421875 0 Z M 1.375 0 "/></g></g></g><g fill="#ffffff" fill-opacity="1"><g transform="translate(83.147762, 23.616129)"><g><path d="M 1.375 0 L 1.375 -11.75 L 5.421875 -11.75 L 5.421875 -10.515625 L 5.46875 -10.515625 C 6.53125 -11.566406 7.65625 -12.09375 8.84375 -12.09375 C 9.695312 -12.09375 10.5 -11.914062 11.25 -11.5625 C 12 -11.21875 12.5625 -10.675781 12.9375 -9.9375 C 14.132812 -11.375 15.4375 -12.09375 16.84375 -12.09375 C 18.09375 -12.09375 19.164062 -11.738281 20.0625 -11.03125 C 20.96875 -10.332031 21.421875 -9.238281 21.421875 -7.75 L 21.421875 0 L 17.359375 0 L 17.359375 -6.640625 C 17.359375 -7.265625 17.1875 -7.785156 16.84375 -8.203125 C 16.5 -8.628906 15.984375 -8.84375 15.296875 -8.84375 C 14.703125 -8.84375 14.25 -8.660156 13.9375 -8.296875 C 13.625 -7.941406 13.453125 -7.515625 13.421875 -7.015625 L 13.421875 0 L 9.375 0 L 9.375 -6.640625 C 9.375 -7.265625 9.203125 -7.785156 8.859375 -8.203125 C 8.515625 -8.628906 8 -8.84375 7.3125 -8.84375 C 6.6875 -8.84375 6.210938 -8.644531 5.890625 -8.25 C 5.578125 -7.863281 5.421875 -7.40625 5.421875 -6.875 L 5.421875 0 Z M 1.375 0 "/></g></g></g><g fill="#ffffff" fill-opacity="1"><g transform="translate(103.432548, 23.616129)"><g><path d="M 2.171875 -1.453125 C 1.078125 -2.648438 0.53125 -4.117188 0.53125 -5.859375 C 0.53125 -7.597656 1.078125 -9.070312 2.171875 -10.28125 C 3.273438 -11.488281 4.675781 -12.09375 6.375 -12.09375 C 7.925781 -12.09375 9.207031 -11.601562 10.21875 -10.625 L 10.21875 -11.75 L 14.265625 -11.75 L 14.265625 0 L 10.265625 0 L 10.265625 -1.328125 L 10.21875 -1.328125 C 9.207031 -0.210938 7.925781 0.34375 6.375 0.34375 C 4.675781 0.34375 3.273438 -0.253906 2.171875 -1.453125 Z M 5.609375 -7.859375 C 5.085938 -7.335938 4.828125 -6.671875 4.828125 -5.859375 C 4.828125 -5.054688 5.078125 -4.394531 5.578125 -3.875 C 6.085938 -3.363281 6.753906 -3.109375 7.578125 -3.109375 C 8.367188 -3.109375 9.019531 -3.367188 9.53125 -3.890625 C 10.050781 -4.410156 10.3125 -5.066406 10.3125 -5.859375 C 10.3125 -6.671875 10.046875 -7.335938 9.515625 -7.859375 C 8.992188 -8.378906 8.347656 -8.640625 7.578125 -8.640625 C 6.796875 -8.640625 6.140625 -8.378906 5.609375 -7.859375 Z M 5.609375 -7.859375 "/></g></g></g><g fill="#ffffff" fill-opacity="1"><g transform="translate(116.802735, 23.616129)"><g><path d="M 2.0625 -11.75 L 2.0625 -16.125 L 6.109375 -16.125 L 6.109375 -11.75 L 8.59375 -11.75 L 8.59375 -8.65625 L 6.109375 -8.65625 L 6.109375 -4.921875 C 6.109375 -3.835938 6.414062 -3.296875 7.03125 -3.296875 C 7.1875 -3.296875 7.347656 -3.328125 7.515625 -3.390625 C 7.679688 -3.453125 7.8125 -3.515625 7.90625 -3.578125 L 8.046875 -3.671875 L 9.046875 -0.390625 C 8.179688 0.0976562 7.1875 0.34375 6.0625 0.34375 C 5.300781 0.34375 4.644531 0.210938 4.09375 -0.046875 C 3.550781 -0.316406 3.132812 -0.675781 2.84375 -1.125 C 2.5625 -1.582031 2.359375 -2.054688 2.234375 -2.546875 C 2.117188 -3.046875 2.0625 -3.578125 2.0625 -4.140625 L 2.0625 -8.65625 L 0.359375 -8.65625 L 0.359375 -11.75 Z M 2.0625 -11.75 "/></g></g></g><g fill="#ffffff" fill-opacity="1"><g transform="translate(123.578869, 23.616129)"><g><path d="M 2.0625 -11.75 L 2.0625 -16.125 L 6.109375 -16.125 L 6.109375 -11.75 L 8.59375 -11.75 L 8.59375 -8.65625 L 6.109375 -8.65625 L 6.109375 -4.921875 C 6.109375 -3.835938 6.414062 -3.296875 7.03125 -3.296875 C 7.1875 -3.296875 7.347656 -3.328125 7.515625 -3.390625 C 7.679688 -3.453125 7.8125 -3.515625 7.90625 -3.578125 L 8.046875 -3.671875 L 9.046875 -0.390625 C 8.179688 0.0976562 7.1875 0.34375 6.0625 0.34375 C 5.300781 0.34375 4.644531 0.210938 4.09375 -0.046875 C 3.550781 -0.316406 3.132812 -0.675781 2.84375 -1.125 C 2.5625 -1.582031 2.359375 -2.054688 2.234375 -2.546875 C 2.117188 -3.046875 2.0625 -3.578125 2.0625 -4.140625 L 2.0625 -8.65625 L 0.359375 -8.65625 L 0.359375 -11.75 Z M 2.0625 -11.75 "/></g></g></g><g fill="#ffffff" fill-opacity="1"><g transform="translate(130.355003, 23.616129)"><g><path d="M 13.265625 -5.3125 L 4.734375 -5.3125 C 4.734375 -4.488281 5 -3.878906 5.53125 -3.484375 C 6.070312 -3.085938 6.65625 -2.890625 7.28125 -2.890625 C 7.9375 -2.890625 8.457031 -2.972656 8.84375 -3.140625 C 9.226562 -3.316406 9.660156 -3.664062 10.140625 -4.1875 L 13.078125 -2.71875 C 11.859375 -0.675781 9.828125 0.34375 6.984375 0.34375 C 5.210938 0.34375 3.691406 -0.257812 2.421875 -1.46875 C 1.160156 -2.6875 0.53125 -4.148438 0.53125 -5.859375 C 0.53125 -7.566406 1.160156 -9.03125 2.421875 -10.25 C 3.691406 -11.476562 5.210938 -12.09375 6.984375 -12.09375 C 8.847656 -12.09375 10.363281 -11.550781 11.53125 -10.46875 C 12.695312 -9.394531 13.28125 -7.859375 13.28125 -5.859375 C 13.28125 -5.585938 13.273438 -5.40625 13.265625 -5.3125 Z M 4.859375 -7.5625 L 9.328125 -7.5625 C 9.234375 -8.164062 8.988281 -8.628906 8.59375 -8.953125 C 8.207031 -9.285156 7.707031 -9.453125 7.09375 -9.453125 C 6.425781 -9.453125 5.894531 -9.273438 5.5 -8.921875 C 5.101562 -8.578125 4.890625 -8.125 4.859375 -7.5625 Z M 4.859375 -7.5625 "/></g></g></g><g fill="#ffffff" fill-opacity="1"><g transform="translate(141.89351, 23.616129)"><g><path d="M 1.375 0 L 1.375 -11.75 L 5.421875 -11.75 L 5.421875 -10.0625 L 5.46875 -10.0625 C 5.5 -10.113281 5.550781 -10.1875 5.625 -10.28125 C 5.695312 -10.375 5.84375 -10.535156 6.0625 -10.765625 C 6.289062 -10.992188 6.535156 -11.195312 6.796875 -11.375 C 7.054688 -11.5625 7.390625 -11.726562 7.796875 -11.875 C 8.210938 -12.019531 8.640625 -12.09375 9.078125 -12.09375 C 9.515625 -12.09375 9.945312 -12.03125 10.375 -11.90625 C 10.800781 -11.789062 11.113281 -11.671875 11.3125 -11.546875 L 11.640625 -11.359375 L 9.9375 -7.921875 C 9.4375 -8.347656 8.734375 -8.5625 7.828125 -8.5625 C 7.335938 -8.5625 6.914062 -8.453125 6.5625 -8.234375 C 6.21875 -8.023438 5.972656 -7.769531 5.828125 -7.46875 C 5.679688 -7.164062 5.578125 -6.90625 5.515625 -6.6875 C 5.453125 -6.476562 5.421875 -6.3125 5.421875 -6.1875 L 5.421875 0 Z M 1.375 0 "/></g></g></g><g fill="#ffffff" fill-opacity="1"><g transform="translate(151.027939, 23.616129)"><g><path d="M 3.984375 -4.90625 C 4.710938 -4.90625 5.332031 -4.648438 5.84375 -4.140625 C 6.363281 -3.628906 6.625 -3.003906 6.625 -2.265625 C 6.625 -1.546875 6.363281 -0.929688 5.84375 -0.421875 C 5.332031 0.0859375 4.710938 0.34375 3.984375 0.34375 C 3.265625 0.34375 2.648438 0.0859375 2.140625 -0.421875 C 1.628906 -0.929688 1.375 -1.546875 1.375 -2.265625 C 1.375 -3.003906 1.628906 -3.628906 2.140625 -4.140625 C 2.648438 -4.648438 3.265625 -4.90625 3.984375 -4.90625 Z M 3.984375 -4.90625 "/></g></g></g><g fill="#ffffff" fill-opacity="1"><g transform="translate(156.750854, 23.616129)"><g><path d="M 1.75 -18.296875 C 2.226562 -18.773438 2.796875 -19.015625 3.453125 -19.015625 C 4.109375 -19.015625 4.671875 -18.773438 5.140625 -18.296875 C 5.617188 -17.828125 5.859375 -17.265625 5.859375 -16.609375 C 5.859375 -15.953125 5.617188 -15.382812 5.140625 -14.90625 C 4.671875 -14.4375 4.109375 -14.203125 3.453125 -14.203125 C 2.796875 -14.203125 2.226562 -14.4375 1.75 -14.90625 C 1.28125 -15.382812 1.046875 -15.953125 1.046875 -16.609375 C 1.046875 -17.265625 1.28125 -17.828125 1.75 -18.296875 Z M 1.375 -11.75 L 1.375 0 L 5.421875 0 L 5.421875 -11.75 Z M 1.375 -11.75 "/></g></g></g><g fill="#ffffff" fill-opacity="1"><g transform="translate(161.397654, 23.616129)"><g><path d="M 2.484375 -1.390625 C 1.179688 -2.554688 0.53125 -4.046875 0.53125 -5.859375 C 0.53125 -7.679688 1.207031 -9.175781 2.5625 -10.34375 C 3.925781 -11.507812 5.609375 -12.09375 7.609375 -12.09375 C 9.578125 -12.09375 11.234375 -11.503906 12.578125 -10.328125 C 13.929688 -9.148438 14.609375 -7.660156 14.609375 -5.859375 C 14.609375 -4.054688 13.945312 -2.570312 12.625 -1.40625 C 11.3125 -0.238281 9.640625 0.34375 7.609375 0.34375 C 5.492188 0.34375 3.785156 -0.234375 2.484375 -1.390625 Z M 5.609375 -7.859375 C 5.085938 -7.335938 4.828125 -6.671875 4.828125 -5.859375 C 4.828125 -5.054688 5.078125 -4.394531 5.578125 -3.875 C 6.085938 -3.363281 6.753906 -3.109375 7.578125 -3.109375 C 8.367188 -3.109375 9.019531 -3.367188 9.53125 -3.890625 C 10.050781 -4.410156 10.3125 -5.066406 10.3125 -5.859375 C 10.3125 -6.671875 10.046875 -7.335938 9.515625 -7.859375 C 8.992188 -8.378906 8.347656 -8.640625 7.578125 -8.640625 C 6.796875 -8.640625 6.140625 -8.378906 5.609375 -7.859375 Z M 5.609375 -7.859375 "/></g></g></g></svg>